PathFileType	4	(X/Y/Z)	/Users/niels/Desktop/University/Third Semester/Perception and Action/Exam/Gymnastics Motion Tracking/Code for Gym Tracking/Scripts/Analyzed Data/kraft_bad_id5_1_nmspeed_Sports2D/kraft_bad_id5_1_nmspeed_Sports2D_px_person00.trc
DataRate	CameraRate	NumFrames	NumMarkers	Units	OrigDataRate	OrigDataStartFrame	OrigNumFrames
49.390243902439025	49.390243902439025	11	22	m	49.390243902439025	54	82
Frame#	Time	Hip			RHip			RKnee			RAnkle			RBigToe			RSmallToe			RHeel			LHip			LKnee			LAnkle			LBigToe			LSmallToe			LHeel			Neck			Head			Nose			RShoulder			RElbow			RWrist			LShoulder			LElbow			LWrist		
		X1	Y1	Z1	X2	Y2	Z2	X3	Y3	Z3	X4	Y4	Z4	X5	Y5	Z5	X6	Y6	Z6	X7	Y7	Z7	X8	Y8	Z8	X9	Y9	Z9	X10	Y10	Z10	X11	Y11	Z11	X12	Y12	Z12	X13	Y13	Z13	X14	Y14	Z14	X15	Y15	Z15	X16	Y16	Z16	X17	Y17	Z17	X18	Y18	Z18	X19	Y19	Z19	X20	Y20	Z20	X21	Y21	Z21	X22	Y22	Z22
54	1.0933333333333333	1.1706292826094113	-0.46868026668628415	0.0	1.1939694120531619	-0.47575797066409353	0.0	1.337774884369905	-0.38268114442027074	0.0	1.4462769865342218	-0.47082121680088795	0.0	1.4960236887719445	-0.4233108129185401	0.0	1.4986144074441459	-0.4404439082965114	0.0	1.455130166128779	-0.48554593961267867	0.0	1.1562849693286288	-0.44570594419458903	0.0	1.1467631348919944	-0.3086523784143559	0.0	1.281563727845398	-0.2715849825476569	0.0	1.3016138207476686	-0.2300127613008316	0.0	1.291939615016074	-0.21752198072456497	0.0	1.2964826949780313	-0.2782005772767413	0.0	1.0741844198590538	-0.6536200565401206	0.0	1.0584872026679288	-0.7545726892890275	0.0	1.0487292632800398	-0.6878900773791293	0.0	1.1067674908713678	-0.6550707779603663	0.0	1.0613811326270162	-0.7259782488469966	0.0	1.033182567102931	-0.8006286548486962	0.0	1.0455458537810167	-0.6391711360463309	0.0	1.0061706015654086	-0.7003195013641278	0.0	0.9798369185946337	-0.7691445678863599	0.0
55	1.11358024691358	1.1921568355017147	-0.46988098977747944	0.0	1.2153587223693725	-0.47931321774770824	0.0	1.3676683677772297	-0.40093023461765526	0.0	1.468784087588616	-0.500401788161784	0.0	1.5224063199432933	-0.45711438497824053	0.0	1.524059173283206	-0.47458896908412773	0.0	1.4766433396308138	-0.5167208304277738	0.0	1.1792608814893424	-0.4466896381308806	0.0	1.1940751998055212	-0.30904654559294037	0.0	1.3361213438766684	-0.29647516693788556	0.0	1.3656526999666865	-0.2530698409466943	0.0	1.3569976445460785	-0.24301447104052504	0.0	1.3515124042502284	-0.306315733470578	0.0	1.0801067452580735	-0.6463030175471659	0.0	1.0513651757473075	-0.7414014547501834	0.0	1.0507821795134284	-0.6759195066883834	0.0	1.1116047796185542	-0.6508843775852365	0.0	1.0681820661530237	-0.7189678068616231	0.0	1.0379569876579675	-0.7906315657971501	0.0	1.0540071799246336	-0.631106835562693	0.0	1.011844605301238	-0.6893464590015395	0.0	0.981913849749941	-0.7554744225423	0.0
56	1.133827160493827	1.2137457696184561	-0.472678028451365	0.0	1.2361856283383306	-0.48452226240033514	0.0	1.3961268735671015	-0.4212694506398802	0.0	1.4889418498706761	-0.5307772554237813	0.0	1.545732206166039	-0.4922629302019173	0.0	1.5464283655393476	-0.510039252322727	0.0	1.4956286827470124	-0.5483064491780894	0.0	1.2028071536341949	-0.4496491539432676	0.0	1.2413955425165573	-0.31504062278441936	0.0	1.3858516235975764	-0.32675169933416276	0.0	1.4239757517615703	-0.2830454894585596	0.0	1.4161120198270392	-0.275687059259659	0.0	1.4011541639715486	-0.3397897805886772	0.0	1.086628452490491	-0.6385249398271529	0.0	1.0454312874611347	-0.7256821477325147	0.0	1.0542054574001107	-0.6625598219499659	0.0	1.1162229835682338	-0.6460251244333648	0.0	1.0760908302144263	-0.709803426810696	0.0	1.044388542288076	-0.777842885220977	0.0	1.0636068208048597	-0.6226039605695615	0.0	1.0189663510682154	-0.6761075704104267	0.0	0.9852892063012111	-0.7388286605259196	0.0
57	1.154074074074074	1.2354450084238076	-0.47739138325175684	0.0	1.2564819632553463	-0.49150075010453376	0.0	1.423146734784495	-0.443745189066488	0.0	1.5068379708923798	-0.562099917749373	0.0	1.5661134956401945	-0.5286460013010814	0.0	1.5657504281286614	-0.5468142099960579	0.0	1.5122051216661911	-0.5805132712761268	0.0	1.2267717553638309	-0.4547854976222677	0.0	1.288107966510241	-0.3267729141330822	0.0	1.4306918880203636	-0.3614732584596344	0.0	1.4761706417268534	-0.3193952268445724	0.0	1.468819780129381	-0.3145021584633093	0.0	1.4453339861188286	-0.37746977687937544	0.0	1.0939747732018066	-0.6304605102876538	0.0	1.0410631244587476	-0.7080247104913122	0.0	1.059168992259705	-0.6482298233213001	0.0	1.1209329124655831	-0.6403524980056651	0.0	1.085491000850731	-0.6982947400784048	0.0	1.052986443609964	-0.7619905002935775	0.0	1.0744859711091435	-0.6137160561730571	0.0	1.028146991075527	-0.660630647729993	0.0	0.9905394601073345	-0.7191299446163504	0.0
58	1.1743209876543208	1.2573942191238876	-0.4842391876413789	0.0	1.2764220561768365	-0.5002901798454811	0.0	1.4487671568571798	-0.46841950323761006	0.0	1.5226723117137624	-0.5944693904179524	0.0	1.5838228119325344	-0.5661065690475032	0.0	1.58221729789503	-0.58481562026535	0.0	1.5265878442962677	-0.6135296015344744	0.0	1.2511319496279822	-0.4622273253376485	0.0	1.3337414984364	-0.34418616195363383	0.0	1.4709159226025517	-0.3998973683505584	0.0	1.5223305078690215	-0.36143132026450786	0.0	1.5152728942962703	-0.3584334505996642	0.0	1.4843306204586384	-0.41845223782300583	0.0	1.1024339438073987	-0.6221874155195366	0.0	1.0387537537180735	-0.688812207641081	0.0	1.0659210275997586	-0.633218737789721	0.0	1.1261311774730187	-0.6337929903375319	0.0	1.0967368476088843	-0.6845664518922719	0.0	1.0642727617671568	-0.7432558697529599	0.0	1.0868202020323245	-0.60448741151527	0.0	1.0399498434407755	-0.6431019177965528	0.0	0.9982658200212957	-0.6965846335583901	0.0
59	1.1945679012345678	1.2796766846432341	-0.49329894645538075	0.0	1.2961697455433092	-0.5108483583810357	0.0	1.4729143592713116	-0.49522091620361186	0.0	1.5366745635992156	-0.627784453246225	0.0	1.599169332089281	-0.6043146124471522	0.0	1.5960674214828359	-0.623665527365312	0.0	1.5390127742825026	-0.6473382950876403	0.0	1.2758702231046535	-0.47198189906945454	0.0	1.3777608139211246	-0.36697096999990325	0.0	1.5068537511158855	-0.44132528056726994	0.0	1.5627684481702813	-0.40811474659959857	0.0	1.5558589927632742	-0.40632826995680416	0.0	1.5185256419190336	-0.46194108513118615	0.0	1.1123293795318927	-0.6137420938085943	0.0	1.039144090429055	-0.6683089756159409	0.0	1.0748055487490646	-0.6177386872228671	0.0	1.132321113232076	-0.6264275808236699	0.0	1.1101841215358634	-0.6692713986683692	0.0	1.0787612217011817	-0.7225420836015718	0.0	1.1007663792367066	-0.5950283744939453	0.0	1.054771310090379	-0.6239657893985499	0.0	1.0090262330184079	-0.6717775610273737	0.0
60	1.2148148148148148	1.3022439391678347	-0.5045097948392657	0.0	1.3157994470689267	-0.5230692118453859	0.0	1.495364967472149	-0.5238716930114372	0.0	1.5490415902979344	-0.6617130422208469	0.0	1.612420892113116	-0.6427302551608831	0.0	1.6075425499296896	-0.6626974431180876	0.0	1.5496892811875924	-0.6816717238711167	0.0	1.300882067291584	-0.4839350699542503	0.0	1.4195020618306562	-0.3945690894495008	0.0	1.5387151108709203	-0.4849934210498116	0.0	1.5978435929015216	-0.45811752841069053	0.0	1.5909360310977787	-0.4569006143023882	0.0	1.5482389006468698	-0.5071381234710064	0.0	1.1239840040505744	-0.6051787237410589	0.0	1.0429421668980747	-0.6467506600007389	0.0	1.0862393186462052	-0.6019829195934487	0.0	1.140113436254132	-0.6185271200327331	0.0	1.1263205206384879	-0.6536876160226762	0.0	1.097046326559497	-0.7015528558198642	0.0	1.1164347061560964	-0.5855116668058911	0.0	1.072775899231557	-0.6040110458574396	0.0	1.0232408239872102	-0.6456583203622586	0.0
61	1.2350617283950616	1.3249620408253673	-0.5177055676958351	0.0	1.3353357504529177	-0.5368109770711836	0.0	1.5158617053195647	-0.5539613774197519	0.0	1.559947357197927	-0.695825493563416	0.0	1.6238202172190646	-0.6807313250155376	0.0	1.6169230347404553	-0.7011378965410263	0.0	1.5588189307348146	-0.7161224261769705	0.0	1.3259945278898881	-0.49789470856203744	0.0	1.45832028586815	-0.4262661994955574	0.0	1.5666127606789568	-0.5301443658045099	0.0	1.6279876267897646	-0.5101098393355057	0.0	1.6208247305047048	-0.5089088985642122	0.0	1.5737323835052461	-0.5533219969772705	0.0	1.1377158802550058	-0.5965860289190729	0.0	1.0508447140065502	-0.6243884314896867	0.0	1.1006875384419972	-0.5861647849145328	0.0	1.1501916633436942	-0.6104902002313403	0.0	1.1458082638931122	-0.6395223068528024	0.0	1.119874632503965	-0.6825260548401314	0.0	1.1339180683035428	-0.5761409694150208	0.0	1.0939067847863635	-0.5843185125336662	0.0	1.0411297303109135	-0.6193920676319055	0.0
62	1.2553086419753086	1.3477088774724855	-0.5326698213573693	0.0	1.354819969597158	-0.5519051827745727	0.0	1.534265860478051	-0.5850724917869591	0.0	1.5695826459028706	-0.7297597659809526	0.0	1.633646393444031	-0.7177721915239629	0.0	1.6245546006793683	-0.7382983645838768	0.0	1.5666212761375378	-0.7502951758122265	0.0	1.3510418884609299	-0.5136569046683581	0.0	1.4937735117227942	-0.4613356597158188	0.0	1.5906892534559463	-0.5761792677602033	0.0	1.6537673317945656	-0.5629804480200814	0.0	1.6459135936814944	-0.561359274716288	0.0	1.595299140205264	-0.5999800886531141	0.0	1.1538567826239858	-0.5880923661714875	0.0	1.0634898176795389	-0.6015508311334694	0.0	1.1186295230282404	-0.5705387493134085	0.0	1.1631821109871252	-0.6027111280693435	0.0	1.1691214237938545	-0.6283241896289151	0.0	1.1477351497235702	-0.6675279724284836	0.0	1.1533610419927505	-0.5671694292191992	0.0	1.1179978804861752	-0.5660843048007723	0.0	1.0628176260949165	-0.5942354713257344	0.0
63	1.2755555555555553	1.3703933091160176	-0.5491665843017475	0.0	1.3742988156668177	-0.5681331581883284	0.0	1.5506268104463234	-0.6168069640546091	0.0	1.5781598616834343	-0.7632411286901385	0.0	1.6422618474815394	-0.7534013718869041	0.0	1.6308367950200535	-0.7735978072146733	0.0	1.5733293435145348	-0.7838319940428895	0.0	1.3758858563744203	-0.5310310932681925	0.0	1.5256552894185897	-0.4990825609101273	0.0	1.6112021104947105	-0.6226635167604175	0.0	1.6758799509066018	-0.6157976889063511	0.0	1.6667196078867967	-0.6135165804994241	0.0	1.6133194381309275	-0.646762496799199	0.0	1.1727024565710704	-0.5799011127551759	0.0	1.0813395980301508	-0.578734573680256	0.0	1.1404358190209256	-0.5554274730907554	0.0	1.1794489467172633	-0.59549266377686	0.0	1.195978235142888	-0.6208459884992746	0.0	1.1801299470750264	-0.6576540933298298	0.0	1.1749681966932304	-0.5589525899248685	0.0	1.144855217339823	-0.5504829106775199	0.0	1.0884916012840764	-0.5715575132393884	0.0
64	1.2958024691358023	1.3928647878962948	-0.5668955404020181	0.0	1.3937412368389985	-0.5851837238330437	0.0	1.5651323384413705	-0.6486797706791196	0.0	1.5858546722411544	-0.7959264387623874	0.0	1.6500644345696995	-0.7871664637266956	0.0	1.6361601268147703	-0.8064555209715732	0.0	1.5791504480112104	-0.8162724018181373	0.0	1.400332808125449	-0.5497771214662429	0.0	1.5538576929025403	-0.5387362098001371	0.0	1.628469929566287	-0.6691092573748706	0.0	1.6950431084719886	-0.667588335786619	0.0	1.683820044173472	-0.6646768368908014	0.0	1.6282051611850508	-0.6932287677818744	0.0	1.194347579596381	-0.5723057731851287	0.0	1.1044853700265387	-0.5566368927026379	0.0	1.1661669483239403	-0.541256986152213	0.0	1.1989600242785627	-0.589073481329451	0.0	1.2252980729741427	-0.616952672315805	0.0	1.2155411573515422	-0.6528282951829963	0.0	1.1988523267984659	-0.5519381451943507	0.0	1.174201494707743	-0.5386341896598864	0.0	1.1183735238992807	-0.552879496810347	0.0
